# xmcd
#
# Track frame offsets:
#	150
#	17940
#	31858
#	53806
#	69948
#	88966
#	103813
#	121938
#	139021
#	159094
#	178469
#	196896
#	216853
#	234219
#	255694
#	278217
#	288529
#	303256
#	320815
#
# Disc length: 4449 seconds
#
# Revision: 0
# Processed by: cddbd v1.5.2PL0 Copyright (c) Steve Scherf et al.
# Submitted via: EasyCDDAExtractor 2010.4.0.0
#
DISCID=15115f13
DTITLE=Various Artist - Grandes Exitos
DYEAR=1900
DGENRE=
TTITLE0=Julio Iglesias and Alejandro Fernandez - Dos Corazones, Dos Historias
TTITLE1=Julio Iglesias - Soy un truhan, soy un señor
TTITLE2=Julio Iglesias - Me Olvide De Vivir
TTITLE3=Julio Iglesias - Momentos
TTITLE4=Julio Iglesias - La Nave Del Olvido
TTITLE5=Julio Iglesias - De niña a mujer
TTITLE6=Julio Iglesias - Ni Te Tengo Ni Te Olvido
TTITLE7=Julio Iglesias and Pedro Vargas - Felicidades
TTITLE8=Julio Iglesias - Que no ne rompa la noche
TTITLE9=Julio Iglesias - Lo mejor de tu vida
TTITLE10=Julio Iglesias - Milonga Medley (Milonga Sentimental-Vivo)
TTITLE11=Julio Iglesias - Agua Dulce, Agua Sala
TTITLE12=Julio Iglesias - Baila Morena
TTITLE13=Julio Iglesias - Bamboleo
TTITLE14=Julio Iglesias - Hey
TTITLE15=Julio Iglesias - La Vida Sigue Igual
TTITLE16=Julio Iglesias - Abrazame
TTITLE17=Julio Iglesias - Por El Amor De Una Mujer
TTITLE18=Julio Iglesias - Rio Rebelde
EXTD=
EXTT0=
EXTT1=
EXTT2=
EXTT3=
EXTT4=
EXTT5=
EXTT6=
EXTT7=
EXTT8=
EXTT9=
EXTT10=
EXTT11=
EXTT12=
EXTT13=
EXTT14=
EXTT15=
EXTT16=
EXTT17=
EXTT18=
PLAYORDER=
